<?xml version="1.0" standalone="no"?>
<!DOCTYPE svg PUBLIC "-//W3C//DTD SVG 20010904//EN"
 "http://www.w3.org/TR/2001/REC-SVG-20010904/DTD/svg10.dtd">
<svg version="1.0" xmlns="http://www.w3.org/2000/svg"
 width="774.000000pt" height="774.000000pt" viewBox="0 0 774.000000 774.000000"
 preserveAspectRatio="xMidYMid meet">
<metadata>
Created by potrace 1.14, written by Peter Selinger 2001-2017
</metadata>
<g transform="translate(0.000000,774.000000) scale(0.100000,-0.100000)"
fill="#000000" stroke="none">
<path d="M236 7062 c-15 -3 -16 -43 -14 -575 l3 -572 1055 -2 c580 -1 1071 -2
1090 -3 l36 0 -3 -1857 c-1 -1263 -6 -1887 -13 -1947 -13 -105 -33 -146 -98
-199 -132 -106 -322 -149 -627 -141 -159 4 -216 8 -333 25 -112 16 -118 17
-257 54 -232 60 -427 150 -756 346 -92 54 -170 99 -174 99 -7 0 6 -1153 14
-1193 2 -11 259 -136 366 -179 160 -63 274 -96 435 -123 114 -19 130 -22 195
-30 28 -4 61 -8 75 -10 14 -2 61 -7 105 -11 44 -3 89 -9 100 -12 11 -3 494 -6
1073 -8 l1053 -2 -2 3165 c-2 2512 -5 3166 -15 3170 -14 5 -3280 10 -3308 5z"/>
<path d="M3679 7049 c-2 -104 0 -1131 3 -1134 1 -1 147 -5 323 -8 176 -4 331
-8 345 -11 14 -2 59 -7 100 -11 379 -31 749 -139 1003 -291 211 -127 415 -335
551 -561 84 -140 183 -385 217 -538 6 -27 13 -59 15 -70 6 -27 24 -132 30
-175 11 -82 14 -109 20 -185 19 -249 1 -551 -47 -785 -27 -128 -26 -126 -45
-184 -102 -322 -250 -567 -469 -774 -190 -180 -431 -297 -715 -346 -19 -3 -44
-8 -55 -10 -48 -9 -175 -26 -240 -32 -38 -3 -88 -8 -110 -11 -22 -2 -238 -7
-480 -10 -242 -3 -442 -7 -443 -8 -3 -3 -5 -1058 -3 -1152 l1 -22 353 4 c320
4 413 7 662 20 99 5 217 14 270 20 22 3 65 7 95 10 51 5 167 19 250 31 340 50
672 176 960 368 81 53 222 156 230 167 3 4 23 22 45 39 72 57 219 204 320 320
53 61 162 215 229 323 222 358 390 835 441 1252 3 28 8 64 10 80 14 98 19 199
19 440 1 291 -5 389 -39 635 -11 78 -20 126 -46 236 -16 71 -31 136 -33 144
-3 8 -12 40 -20 70 -40 148 -131 381 -212 543 -108 214 -296 498 -428 647 -72
80 -280 287 -319 317 -23 17 -51 40 -63 51 -11 11 -63 48 -115 84 -284 193
-496 287 -849 377 -147 37 -407 87 -508 97 -26 2 -81 9 -122 14 -84 11 -143
16 -275 25 -49 4 -110 8 -135 11 -25 3 -197 7 -382 11 l-338 6 -1 -24z"/>
</g>
</svg>
